<?xml version="1.0" encoding="UTF-8"?>
<svg id="Layer_1" data-name="Layer 1" xmlns="http://www.w3.org/2000/svg" xmlns:xlink="http://www.w3.org/1999/xlink" viewBox="0 0 1342.76 710.76">
  <defs>
    <style>
      .cls-1, .cls-2 {
        fill: #fff;
      }

      .cls-3 {
        letter-spacing: -.02em;
      }

      .cls-4 {
        letter-spacing: 0em;
      }

      .cls-2 {
        font-family: IvyOraDisplay-Bold, 'IvyOra Display';
        font-size: 60.34px;
        font-weight: 700;
      }

      .cls-5 {
        letter-spacing: -.02em;
      }
    </style>
    <image id="image" width="90" height="90" xlink:href="../../../../../Downloads/icons8-butterfly-90.png"/>
  </defs>
  <text class="cls-2" transform="translate(524.69 648.38)"><tspan x="0" y="0">G</tspan><tspan class="cls-5" x="49.78" y="0">r</tspan><tspan x="74.88" y="0">aphic </tspan><tspan class="cls-4" x="233.87" y="0">D</tspan><tspan x="282.14" y="0">esigne</tspan><tspan class="cls-3" x="454.22" y="0">r</tspan></text>
  <path class="cls-1" d="M32.14,320.89L143.18,58.57l103.51,262.74c8.8,21.79,26.82,29.33,33.94,29.33v1.26h-83.81v-1.26c16.76-4.61,17.6-20.95,14.67-28.08l-27.66-70.82h-117.33l-29.75,71.66c-7.12,16.76,10.06,26.82,20.11,27.24v1.26H-3.06v-1.26c12.57-2.1,23.89-10.06,35.2-29.75ZM182.16,247.14l-45.68-116.91c-3.77-9.64-6.29-14.25-9.22-14.25-2.51,0-5.45,4.19-8.8,12.57l-49.87,118.59h113.56Z"/>
  <path class="cls-1" d="M287.76,350.64c8.38,0,18.86-4.61,18.86-25.56V108.43c0-11.31-.42-15.09-14.25-14.67h-2.1v-.84l45.26-34.36h2.51v266.52c0,20.95,12.99,25.56,19.7,25.56v1.26h-69.98v-1.26Z"/>
  <path class="cls-1" d="M386.99,273.54c18.86-15.09,37.3-22.21,54.48-29.33,36.04-14.67,50.29-24.72,49.87-51.54-.42-18.86-13.83-35.2-44.84-31.01-27.24,3.77-53.22,30.59-72.5,62.86v-34.36c16.76-21.79,47.35-31.85,72.91-32.69,45.68-1.26,72.91,18.44,72.91,66.63v77.52c15.92-10.06,50.29-41.91,63.7-59.51v-38.55c0-11.73-.42-14.67-14.25-14.67h-2.1v-.84l45.26-26.4h2.51v33.1c12.99-19.28,31.85-36.46,62.44-37.3,47.35-1.26,70.82,23.47,71.24,57.41l1.68,110.21c.42,20.95,12.57,25.56,19.28,25.56v1.26h-69.98v-1.26c8.38,0,19.28-4.61,18.86-25.56l-.84-108.12c0-12.57-.84-54.48-45.68-54.48-15.09,0-28.91,7.54-39.39,18.44-18.02,19.28-29.75,45.68-48.61,67.05-18.02,20.53-41.49,43.16-63.7,57.83-40.65,26.82-52.38,51.96-105.18,50.71-24.72-.84-46.93-11.31-48.19-38.97-.42-16.34,7.54-33.94,20.11-44ZM434.76,350.64c11.73.42,23.05-4.19,34.36-11.31,7.12-4.61,13.83-10.06,20.53-15.51l-1.26-95.54c-38.55,13.83-88.42,36.04-88.42,81.71,0,27.24,16.76,40.23,34.78,40.65ZM519.83,310.83v7.96c0,10.9,1.68,22.21,16.34,21.79,3.35,0,7.54-1.26,10.9-4.61v2.1c-5.03,8.8-16.76,15.92-31.43,15.92-17.18,0-23.89-12.57-25.98-21.37l30.17-21.79ZM583.52,325.08v-68.31l31.43-42.74v111.05c0,20.95,12.99,25.56,19.7,25.56v1.26h-69.98v-1.26c8.38,0,18.86-4.61,18.86-25.56Z"/>
  <path class="cls-1" d="M801.22,273.54c18.86-15.09,37.3-22.21,54.48-29.33,36.04-14.67,50.29-24.72,49.87-51.54-.42-18.86-13.83-35.2-44.84-31.01-27.24,3.77-53.22,30.59-72.5,62.86v-34.36c16.76-21.79,47.35-31.85,72.91-32.69,45.68-1.26,72.91,18.44,72.91,66.63v94.71c0,10.9,1.68,22.21,16.34,21.79,3.35,0,7.54-1.26,10.9-4.61v2.1c-5.03,8.8-16.76,15.92-31.43,15.92-20.53,0-25.98-18.44-26.4-25.98-16.76,18.44-34.78,29.33-74.17,28.5-24.72-.84-46.93-11.31-48.19-38.97-.42-16.34,7.54-33.94,20.11-44ZM814.21,310c0,27.24,16.76,40.23,34.78,40.65,22.63.84,53.64-17.6,53.64-36.88v-85.49c-38.55,13.83-88.42,36.04-88.42,81.71Z"/>
  <path class="cls-1" d="M197.79,368.02v-1.26h83.81v1.26c-16.76,4.61-17.6,20.95-15.09,28.08l71.24,182.71c3.77,9.64,6.7,14.67,10.06,14.67,2.51,0,5.03-4.19,7.96-12.57l63.7-190.67,72.08,197.37c3.35,9.22,5.87,13.83,7.96,13.83,2.51,0,5.03-4.61,8.38-13.83l73.33-185.64c6.71-16.76-9.22-33.52-19.7-33.94v-1.26h60.34v1.26c-7.12,0-28.08,14.25-36.46,36.04l-100.99,256.04-70.4-192.34c-2.93-8.38-5.45-12.15-7.96-12.15s-4.61,3.77-7.54,12.15l-63.7,192.34-103.09-262.74c-8.8-21.79-27.24-29.33-33.94-29.33Z"/>
  <path class="cls-1" d="M688.61,364.7c41.91,0,71.24,18.86,85.91,49.45,25.14-15.09,50.7-30.17,75.85-44.84h4.19v30.17c15.09-22.63,35.2-33.52,66.21-34.36,46.93-1.26,70.4,23.47,71.24,57.41l1.26,110.21c.42,20.95,12.57,25.56,19.7,25.56v1.26h-70.4v-1.26c8.38,0,19.28-4.61,19.28-25.56l-1.26-108.12c0-12.57-.84-54.48-45.68-54.48-32.27,0-56.99,31.43-56.99,62.02l.42,100.57c0,20.95,12.57,25.56,19.28,25.56v1.26h-69.98v-1.26c8.38,0,18.86-4.61,18.86-25.56v-124.46c0-7.96.42-15.92-4.61-15.92-1.26,0-2.51.42-4.61,1.68-34.78,20.95-82.55,52.8-124.46,54.06-34.78,1.26-50.29-18.44-50.29-38.13,0-13.83,6.7-26.82,19.7-35.2-27.24,11.31-37.3,44.42-37.3,75.43,0,41.07,15.92,108.95,67.89,108.95,45.26,0,60.76-36.88,60.76-76.27,0-12.15-1.68-28.91-5.03-44l29.75-15.92c4.19,12.57,6.7,27.24,6.7,42.32,0,59.09-36.04,98.9-95.96,98.9s-95.96-39.81-95.96-98.9,36.46-100.57,95.54-100.57ZM647.54,408.28c0,18.86,15.5,36.46,45.26,35.62,17.6-.84,35.62-6.29,53.22-14.67-9.22-30.59-27.24-59.92-60.34-58.25-26.4,1.68-37.71,21.37-38.13,37.3Z"/>
  <path class="cls-1" d="M1025.69,539.44l23.47-33.11c-16.76-13.83-26.4-34.78-26.4-61.18,0-48.19,33.52-80.46,83.81-80.46,15.09,0,28.91,2.93,40.23,7.96l3.35-4.61c11.73-16.76,27.66-36.46,43.58-37.3,23.89-1.26,22.21,31.01,7.12,31.01-2.93-3.35-7.12-4.61-12.15-4.61-12.57,0-28.91,7.96-37.71,17.18,25.14,12.57,39.81,37.3,39.81,70.82,0,49.45-33.52,79.2-84.23,79.2-21.37,0-40.23-5.45-54.06-15.51-4.19,6.29-6.29,10.9-6.29,12.57,0,12.99,79.2,21.79,104.76,27.66,29.75,7.12,57.83,22.63,57.41,55.73-.84,44.84-46.1,69.14-94.71,69.14-31.01,0-82.55-9.64-94.7-35.62v-49.87c11.31,46.93,46.93,80.88,100.15,80.88,28.91,0,62.86-10.48,62.86-47.35,0-22.21-15.5-36.04-62.44-47.35-15.09-3.77-64.11-12.57-88-18.44-11.73-2.93-12.99-6.7-5.87-16.76ZM1055.44,433c0,15.09,2.51,34.78,9.22,51.54l72.5-98.48c-8.38-10.06-19.28-16.76-33.94-16.76-36.04,0-47.77,33.1-47.77,63.7ZM1066.34,487.9c8.38,18.44,22.21,32.69,43.58,32.69,36.04,0,48.19-29.75,48.19-61.18,0-20.53-4.61-50.71-18.44-70.4-19.28,25.14-51.96,68.72-73.33,98.9Z"/>
  <use transform="translate(1044.13 78.88) rotate(36.17) scale(2.38)" xlink:href="#image"/>
  <use transform="translate(1225.29 38.94) rotate(36.17) scale(1.66)" xlink:href="#image"/>
</svg>